REM DIRINDEX 1\2\4\8,1\2\4\9,1\2\4\10,1\2\5\11,1\2\5\12,1\2\5\13,1\2\5\14,1\2\5\15,1\3\6\16,1\3\6\17,1\3\6\18,1\3\7\19,1\3\7\20,1\3\7\21,1\3\7\22,1\3\7\23
REM DIRNAME "folder01","folder02","folder03","folder04","folder05","folder06","folder07","folder08","folder09","folder10","folder11","folder12","folder13","folder14","folder15","folder16","folder17","folder18","folder19","folder20","folder21","folder22","folder23"
TITLE ""
FILE "LR_black_phrase_A01.mp3" MP3
  TRACK 01 AUDIO
    TITLE "0:"
    INDEX 01 00:00:00
  TRACK 02 AUDIO
    TITLE "19:cjc171_11001"
    INDEX 01 00:00:08
  TRACK 03 AUDIO
    TITLE "0:"
    INDEX 01 00:01:23
  TRACK 04 AUDIO
    TITLE "20:cjc171_11002"
    INDEX 01 00:01:65
  TRACK 05 AUDIO
    TITLE "0:"
    INDEX 01 00:04:32
  TRACK 06 AUDIO
    TITLE "21:cjc171_11003"
    INDEX 01 00:05:31
  TRACK 07 AUDIO
    TITLE "0:"
    INDEX 01 00:07:38
  TRACK 08 AUDIO
    TITLE "22:cjc171_11004"
    INDEX 01 00:08:00
  TRACK 09 AUDIO
    TITLE "0:"
    INDEX 01 00:09:74
  TRACK 10 AUDIO
    TITLE "23:cjc171_11005"
    INDEX 01 00:10:30
  TRACK 11 AUDIO
    TITLE "0:"
    INDEX 01 00:12:29
  TRACK 12 AUDIO
    TITLE "19:cjc171_11006"
    INDEX 01 00:13:27
  TRACK 13 AUDIO
    TITLE "0:"
    INDEX 01 00:14:61
  TRACK 14 AUDIO
    TITLE "20:cjc171_11007"
    INDEX 01 00:15:26
  TRACK 15 AUDIO
    TITLE "0:"
    INDEX 01 00:17:34
  TRACK 16 AUDIO
    TITLE "21:cjc171_11008"
    INDEX 01 00:18:32
  TRACK 17 AUDIO
    TITLE "0:"
    INDEX 01 00:20:27
  TRACK 18 AUDIO
    TITLE "22:cjc171_11009"
    INDEX 01 00:20:68
  TRACK 19 AUDIO
    TITLE "0:"
    INDEX 01 00:23:27
  TRACK 20 AUDIO
    TITLE "23:cjc171_11010"
    INDEX 01 00:23:54
  TRACK 21 AUDIO
    TITLE "0:"
    INDEX 01 00:26:14
  TRACK 22 AUDIO
    TITLE "19:cjc171_11011"
    INDEX 01 00:27:17
  TRACK 23 AUDIO
    TITLE "0:"
    INDEX 01 00:28:54
  TRACK 24 AUDIO
    TITLE "20:cjc171_11012"
    INDEX 01 00:29:14
  TRACK 25 AUDIO
    TITLE "0:"
    INDEX 01 00:31:42
  TRACK 26 AUDIO
    TITLE "21:cjc171_11013"
    INDEX 01 00:32:40
  TRACK 27 AUDIO
    TITLE "0:"
    INDEX 01 00:35:09
  TRACK 28 AUDIO
    TITLE "22:cjc171_11014"
    INDEX 01 00:35:48
  TRACK 29 AUDIO
    TITLE "0:"
    INDEX 01 00:38:34
  TRACK 30 AUDIO
    TITLE "23:cjc171_11015"
    INDEX 01 00:38:66
  TRACK 31 AUDIO
    TITLE "0:"
    INDEX 01 00:41:52
  TRACK 32 AUDIO
    TITLE "19:cjc171_11016"
    INDEX 01 00:42:60
  TRACK 33 AUDIO
    TITLE "0:"
    INDEX 01 00:44:06
  TRACK 34 AUDIO
    TITLE "20:cjc171_11017"
    INDEX 01 00:44:45
  TRACK 35 AUDIO
    TITLE "0:"
    INDEX 01 00:45:62
  TRACK 36 AUDIO
    TITLE "21:cjc171_11018"
    INDEX 01 00:46:63
  TRACK 37 AUDIO
    TITLE "0:"
    INDEX 01 00:48:29
  TRACK 38 AUDIO
    TITLE "22:cjc171_11019"
    INDEX 01 00:48:64
  TRACK 39 AUDIO
    TITLE "0:"
    INDEX 01 00:50:55
  TRACK 40 AUDIO
    TITLE "23:cjc171_11020"
    INDEX 01 00:51:08
  TRACK 41 AUDIO
    TITLE "0:"
    INDEX 01 00:52:72
  TRACK 42 AUDIO
    TITLE "19:cjc171_11021"
    INDEX 01 00:54:00
  TRACK 43 AUDIO
    TITLE "0:"
    INDEX 01 00:55:17
  TRACK 44 AUDIO
    TITLE "20:cjc171_11022"
    INDEX 01 00:55:56
  TRACK 45 AUDIO
    TITLE "0:"
    INDEX 01 00:58:35
  TRACK 46 AUDIO
    TITLE "21:cjc171_11023"
    INDEX 01 00:59:35
  TRACK 47 AUDIO
    TITLE "0:"
    INDEX 01 01:01:32
  TRACK 48 AUDIO
    TITLE "22:cjc171_11024"
    INDEX 01 01:01:65
  TRACK 49 AUDIO
    TITLE "0:"
    INDEX 01 01:04:06
  TRACK 50 AUDIO
    TITLE "23:cjc171_11025"
    INDEX 01 01:04:30
  TRACK 51 AUDIO
    TITLE "0:"
    INDEX 01 01:06:50
  TRACK 52 AUDIO
    TITLE "19:cjc171_11026"
    INDEX 01 01:07:56
  TRACK 53 AUDIO
    TITLE "0:"
    INDEX 01 01:09:04
  TRACK 54 AUDIO
    TITLE "20:cjc171_11027"
    INDEX 01 01:09:43
  TRACK 55 AUDIO
    TITLE "0:"
    INDEX 01 01:12:18
  TRACK 56 AUDIO
    TITLE "21:cjc171_11028"
    INDEX 01 01:13:17
  TRACK 57 AUDIO
    TITLE "0:"
    INDEX 01 01:15:43
  TRACK 58 AUDIO
    TITLE "22:cjc171_11029"
    INDEX 01 01:16:06
  TRACK 59 AUDIO
    TITLE "0:"
    INDEX 01 01:18:38
  TRACK 60 AUDIO
    TITLE "23:cjc171_11030"
    INDEX 01 01:18:67
  TRACK 61 AUDIO
    TITLE "0:"
    INDEX 01 01:21:22
  TRACK 62 AUDIO
    TITLE "19:cjc171_11031"
    INDEX 01 01:22:26
  TRACK 63 AUDIO
    TITLE "0:"
    INDEX 01 01:23:31
  TRACK 64 AUDIO
    TITLE "20:cjc171_11032"
    INDEX 01 01:23:70
  TRACK 65 AUDIO
    TITLE "0:"
    INDEX 01 01:26:08
  TRACK 66 AUDIO
    TITLE "21:cjc171_11033"
    INDEX 01 01:27:09
  TRACK 67 AUDIO
    TITLE "0:"
    INDEX 01 01:29:44
  TRACK 68 AUDIO
    TITLE "22:cjc171_11034"
    INDEX 01 01:30:08
  TRACK 69 AUDIO
    TITLE "0:"
    INDEX 01 01:32:28
  TRACK 70 AUDIO
    TITLE "23:cjc171_11035"
    INDEX 01 01:32:60
  TRACK 71 AUDIO
    TITLE "0:"
    INDEX 01 01:35:07
  TRACK 72 AUDIO
    TITLE "19:cjc171_11036"
    INDEX 01 01:36:14
  TRACK 73 AUDIO
    TITLE "0:"
    INDEX 01 01:37:23
  TRACK 74 AUDIO
    TITLE "20:cjc171_11037"
    INDEX 01 01:37:61
  TRACK 75 AUDIO
    TITLE "0:"
    INDEX 01 01:38:74
  TRACK 76 AUDIO
    TITLE "21:cjc171_11038"
    INDEX 01 01:39:73
  TRACK 77 AUDIO
    TITLE "0:"
    INDEX 01 01:42:23
  TRACK 78 AUDIO
    TITLE "22:cjc171_11039"
    INDEX 01 01:42:60
  TRACK 79 AUDIO
    TITLE "0:"
    INDEX 01 01:45:29
  TRACK 80 AUDIO
    TITLE "23:cjc171_11040"
    INDEX 01 01:45:58
  TRACK 81 AUDIO
    TITLE "0:"
    INDEX 01 01:48:25
  TRACK 82 AUDIO
    TITLE "19:cjc171_11041"
    INDEX 01 01:49:31
  TRACK 83 AUDIO
    TITLE "0:"
    INDEX 01 01:50:40
  TRACK 84 AUDIO
    TITLE "20:cjc171_11042"
    INDEX 01 01:51:02
  TRACK 85 AUDIO
    TITLE "0:"
    INDEX 01 01:52:23
  TRACK 86 AUDIO
    TITLE "21:cjc171_11043"
    INDEX 01 01:53:22
  TRACK 87 AUDIO
    TITLE "0:"
    INDEX 01 01:56:01
  TRACK 88 AUDIO
    TITLE "22:cjc171_11044"
    INDEX 01 01:56:42
  TRACK 89 AUDIO
    TITLE "0:"
    INDEX 01 01:59:45
  TRACK 90 AUDIO
    TITLE "23:cjc171_11045"
    INDEX 01 01:59:72
  TRACK 91 AUDIO
    TITLE "0:"
    INDEX 01 02:02:74
  TRACK 92 AUDIO
    TITLE "19:cjc171_11046"
    INDEX 01 02:04:03
  TRACK 93 AUDIO
    TITLE "0:"
    INDEX 01 02:05:22
  TRACK 94 AUDIO
    TITLE "20:cjc171_11047"
    INDEX 01 02:05:61
  TRACK 95 AUDIO
    TITLE "0:"
    INDEX 01 02:06:64
  TRACK 96 AUDIO
    TITLE "21:cjc171_11048"
    INDEX 01 02:07:62
  TRACK 97 AUDIO
    TITLE "0:"
    INDEX 01 02:09:22
  TRACK 98 AUDIO
    TITLE "22:cjc171_11049"
    INDEX 01 02:09:49
  TRACK 99 AUDIO
    TITLE "0:"
    INDEX 01 02:11:42
  TRACK 100 AUDIO
    TITLE "23:cjc171_11050"
    INDEX 01 02:11:69
  TRACK 101 AUDIO
    TITLE "0:"
    INDEX 01 02:13:62
  TRACK 102 AUDIO
    TITLE "19:cjc171_11051"
    INDEX 01 02:14:72
  TRACK 103 AUDIO
    TITLE "0:"
    INDEX 01 02:16:20
  TRACK 104 AUDIO
    TITLE "20:cjc171_11052"
    INDEX 01 02:16:61
  TRACK 105 AUDIO
    TITLE "0:"
    INDEX 01 02:18:40
  TRACK 106 AUDIO
    TITLE "21:cjc171_11053"
    INDEX 01 02:19:40
  TRACK 107 AUDIO
    TITLE "0:"
    INDEX 01 02:21:11
  TRACK 108 AUDIO
    TITLE "22:cjc171_11054"
    INDEX 01 02:21:50
  TRACK 109 AUDIO
    TITLE "0:"
    INDEX 01 02:23:65
  TRACK 110 AUDIO
    TITLE "23:cjc171_11055"
    INDEX 01 02:24:19
  TRACK 111 AUDIO
    TITLE "0:"
    INDEX 01 02:26:34
  TRACK 112 AUDIO
    TITLE "19:cjc171_11056"
    INDEX 01 02:27:39
  TRACK 113 AUDIO
    TITLE "0:"
    INDEX 01 02:28:70
  TRACK 114 AUDIO
    TITLE "20:cjc171_11057"
    INDEX 01 02:29:34
  TRACK 115 AUDIO
    TITLE "0:"
    INDEX 01 02:31:39
  TRACK 116 AUDIO
    TITLE "21:cjc171_11058"
    INDEX 01 02:32:42
  TRACK 117 AUDIO
    TITLE "0:"
    INDEX 01 02:34:55
  TRACK 118 AUDIO
    TITLE "22:cjc171_11059"
    INDEX 01 02:35:19
  TRACK 119 AUDIO
    TITLE "0:"
    INDEX 01 02:38:09
  TRACK 120 AUDIO
    TITLE "23:cjc171_11060"
    INDEX 01 02:38:39
  TRACK 121 AUDIO
    TITLE "0:"
    INDEX 01 02:41:29
  TRACK 122 AUDIO
    TITLE "19:cjc171_11061"
    INDEX 01 02:42:33
  TRACK 123 AUDIO
    TITLE "0:"
    INDEX 01 02:43:58
  TRACK 124 AUDIO
    TITLE "20:cjc171_11062"
    INDEX 01 02:44:20
  TRACK 125 AUDIO
    TITLE "0:"
    INDEX 01 02:46:31
  TRACK 126 AUDIO
    TITLE "21:cjc171_11063"
    INDEX 01 02:47:28
  TRACK 127 AUDIO
    TITLE "0:"
    INDEX 01 02:49:48
  TRACK 128 AUDIO
    TITLE "22:cjc171_11064"
    INDEX 01 02:50:07
  TRACK 129 AUDIO
    TITLE "0:"
    INDEX 01 02:52:12
  TRACK 130 AUDIO
    TITLE "23:cjc171_11065"
    INDEX 01 02:52:35
  TRACK 131 AUDIO
    TITLE "0:"
    INDEX 01 02:54:42
  TRACK 132 AUDIO
    TITLE "19:cjc171_11066"
    INDEX 01 02:55:49
  TRACK 133 AUDIO
    TITLE "0:"
    INDEX 01 02:56:74
  TRACK 134 AUDIO
    TITLE "20:cjc171_11067"
    INDEX 01 02:57:38
  TRACK 135 AUDIO
    TITLE "0:"
    INDEX 01 02:58:73
  TRACK 136 AUDIO
    TITLE "21:cjc171_11068"
    INDEX 01 02:59:74
  TRACK 137 AUDIO
    TITLE "0:"
    INDEX 01 03:02:06
  TRACK 138 AUDIO
    TITLE "22:cjc171_11069"
    INDEX 01 03:02:41
  TRACK 139 AUDIO
    TITLE "0:"
    INDEX 01 03:04:66
  TRACK 140 AUDIO
    TITLE "23:cjc171_11070"
    INDEX 01 03:05:16
  TRACK 141 AUDIO
    TITLE "0:"
    INDEX 01 03:07:40
  TRACK 142 AUDIO
    TITLE "19:cjc171_11071"
    INDEX 01 03:08:48
  TRACK 143 AUDIO
    TITLE "0:"
    INDEX 01 03:09:63
  TRACK 144 AUDIO
    TITLE "20:cjc171_11072"
    INDEX 01 03:10:27
  TRACK 145 AUDIO
    TITLE "0:"
    INDEX 01 03:12:01
  TRACK 146 AUDIO
    TITLE "21:cjc171_11073"
    INDEX 01 03:12:73
  TRACK 147 AUDIO
    TITLE "0:"
    INDEX 01 03:14:72
  TRACK 148 AUDIO
    TITLE "22:cjc171_11074"
    INDEX 01 03:15:38
  TRACK 149 AUDIO
    TITLE "0:"
    INDEX 01 03:17:45
  TRACK 150 AUDIO
    TITLE "23:cjc171_11075"
    INDEX 01 03:18:01
  TRACK 151 AUDIO
    TITLE "0:"
    INDEX 01 03:20:08
  TRACK 152 AUDIO
    TITLE "19:cjc171_11076"
    INDEX 01 03:21:13
  TRACK 153 AUDIO
    TITLE "0:"
    INDEX 01 03:22:32
  TRACK 154 AUDIO
    TITLE "20:cjc171_11077"
    INDEX 01 03:22:71
  TRACK 155 AUDIO
    TITLE "0:"
    INDEX 01 03:24:31
  TRACK 156 AUDIO
    TITLE "21:cjc171_11078"
    INDEX 01 03:25:31
  TRACK 157 AUDIO
    TITLE "0:"
    INDEX 01 03:28:00
  TRACK 158 AUDIO
    TITLE "22:cjc171_11079"
    INDEX 01 03:28:39
  TRACK 159 AUDIO
    TITLE "0:"
    INDEX 01 03:31:23
  TRACK 160 AUDIO
    TITLE "23:cjc171_11080"
    INDEX 01 03:31:55
  TRACK 161 AUDIO
    TITLE "0:"
    INDEX 01 03:34:37
  TRACK 162 AUDIO
    TITLE "19:cjc171_11081"
    INDEX 01 03:35:45
  TRACK 163 AUDIO
    TITLE "0:"
    INDEX 01 03:36:68
  TRACK 164 AUDIO
    TITLE "20:cjc171_11082"
    INDEX 01 03:37:26
  TRACK 165 AUDIO
    TITLE "0:"
    INDEX 01 03:39:17
  TRACK 166 AUDIO
    TITLE "21:cjc171_11083"
    INDEX 01 03:40:14
  TRACK 167 AUDIO
    TITLE "0:"
    INDEX 01 03:42:39
  TRACK 168 AUDIO
    TITLE "22:cjc171_11084"
    INDEX 01 03:42:70
  TRACK 169 AUDIO
    TITLE "0:"
    INDEX 01 03:44:61
  TRACK 170 AUDIO
    TITLE "23:cjc171_11085"
    INDEX 01 03:45:06
  TRACK 171 AUDIO
    TITLE "0:"
    INDEX 01 03:46:74
  TRACK 172 AUDIO
    TITLE "19:cjc171_11086"
    INDEX 01 03:48:02
  TRACK 173 AUDIO
    TITLE "0:"
    INDEX 01 03:49:39
  TRACK 174 AUDIO
    TITLE "20:cjc171_11087"
    INDEX 01 03:49:72
  TRACK 175 AUDIO
    TITLE "0:"
    INDEX 01 03:51:73
  TRACK 176 AUDIO
    TITLE "21:cjc171_11088"
    INDEX 01 03:52:73
  TRACK 177 AUDIO
    TITLE "0:"
    INDEX 01 03:54:64
  TRACK 178 AUDIO
    TITLE "22:cjc171_11089"
    INDEX 01 03:55:24
  TRACK 179 AUDIO
    TITLE "0:"
    INDEX 01 03:57:36
  TRACK 180 AUDIO
    TITLE "23:cjc171_11090"
    INDEX 01 03:57:64
  TRACK 181 AUDIO
    TITLE "0:"
    INDEX 01 04:00:01
  TRACK 182 AUDIO
    TITLE "19:cjc171_11091"
    INDEX 01 04:01:09
  TRACK 183 AUDIO
    TITLE "0:"
    INDEX 01 04:02:30
  TRACK 184 AUDIO
    TITLE "20:cjc171_11092"
    INDEX 01 04:02:71
  TRACK 185 AUDIO
    TITLE "0:"
    INDEX 01 04:04:09
  TRACK 186 AUDIO
    TITLE "21:cjc171_11093"
    INDEX 01 04:05:09
  TRACK 187 AUDIO
    TITLE "0:"
    INDEX 01 04:06:61
  TRACK 188 AUDIO
    TITLE "22:cjc171_11094"
    INDEX 01 04:07:27
  TRACK 189 AUDIO
    TITLE "0:"
    INDEX 01 04:09:26
  TRACK 190 AUDIO
    TITLE "23:cjc171_11095"
    INDEX 01 04:09:55
  TRACK 191 AUDIO
    TITLE "0:"
    INDEX 01 04:11:52
  TRACK 192 AUDIO
    TITLE "19:cjc171_11096"
    INDEX 01 04:12:58
  TRACK 193 AUDIO
    TITLE "0:"
    INDEX 01 04:13:73
  TRACK 194 AUDIO
    TITLE "20:cjc171_11097"
    INDEX 01 04:14:37
  TRACK 195 AUDIO
    TITLE "0:"
    INDEX 01 04:16:08
  TRACK 196 AUDIO
    TITLE "21:cjc171_11098"
    INDEX 01 04:17:08
  TRACK 197 AUDIO
    TITLE "0:"
    INDEX 01 04:19:48
  TRACK 198 AUDIO
    TITLE "22:cjc171_11099"
    INDEX 01 04:20:08
  TRACK 199 AUDIO
    TITLE "0:"
    INDEX 01 04:22:19
  TRACK 200 AUDIO
    TITLE "23:cjc171_11100"
    INDEX 01 04:22:48
  TRACK 201 AUDIO
    TITLE "0:"
    INDEX 01 04:24:59
  TRACK 202 AUDIO
    TITLE "19:cjc171_11101"
    INDEX 01 04:25:64
  TRACK 203 AUDIO
    TITLE "0:"
    INDEX 01 04:27:24
  TRACK 204 AUDIO
    TITLE "20:cjc171_11102"
    INDEX 01 04:27:63
  TRACK 205 AUDIO
    TITLE "0:"
    INDEX 01 04:30:24
  TRACK 206 AUDIO
    TITLE "21:cjc171_11103"
    INDEX 01 04:31:22
  TRACK 207 AUDIO
    TITLE "0:"
    INDEX 01 04:33:21
  TRACK 208 AUDIO
    TITLE "22:cjc171_11104"
    INDEX 01 04:33:60
  TRACK 209 AUDIO
    TITLE "0:"
    INDEX 01 04:35:68
  TRACK 210 AUDIO
    TITLE "23:cjc171_11105"
    INDEX 01 04:36:23
  TRACK 211 AUDIO
    TITLE "0:"
    INDEX 01 04:38:31
  TRACK 212 AUDIO
    TITLE "19:cjc171_11106"
    INDEX 01 04:39:35
  TRACK 213 AUDIO
    TITLE "0:"
    INDEX 01 04:41:00
  TRACK 214 AUDIO
    TITLE "20:cjc171_11107"
    INDEX 01 04:41:46
  TRACK 215 AUDIO
    TITLE "0:"
    INDEX 01 04:43:50
  TRACK 216 AUDIO
    TITLE "21:cjc171_11108"
    INDEX 01 04:44:50
  TRACK 217 AUDIO
    TITLE "0:"
    INDEX 01 04:46:58
  TRACK 218 AUDIO
    TITLE "22:cjc171_11109"
    INDEX 01 04:47:23
  TRACK 219 AUDIO
    TITLE "0:"
    INDEX 01 04:50:37
  TRACK 220 AUDIO
    TITLE "23:cjc171_11110"
    INDEX 01 04:50:70
  TRACK 221 AUDIO
    TITLE "0:"
    INDEX 01 04:54:07
  TRACK 222 AUDIO
    TITLE "19:cjc171_11111"
    INDEX 01 04:55:16
  TRACK 223 AUDIO
    TITLE "0:"
    INDEX 01 04:56:24
  TRACK 224 AUDIO
    TITLE "20:cjc171_11112"
    INDEX 01 04:56:59
  TRACK 225 AUDIO
    TITLE "0:"
    INDEX 01 04:58:32
  TRACK 226 AUDIO
    TITLE "21:cjc171_11113"
    INDEX 01 04:59:34
  TRACK 227 AUDIO
    TITLE "0:"
    INDEX 01 05:02:30
  TRACK 228 AUDIO
    TITLE "22:cjc171_11114"
    INDEX 01 05:02:65
  TRACK 229 AUDIO
    TITLE "0:"
    INDEX 01 05:05:01
  TRACK 230 AUDIO
    TITLE "23:cjc171_11115"
    INDEX 01 05:05:22
  TRACK 231 AUDIO
    TITLE "0:"
    INDEX 01 05:07:33
  TRACK 232 AUDIO
    TITLE "19:cjc171_11116"
    INDEX 01 05:08:37
  TRACK 233 AUDIO
    TITLE "0:"
    INDEX 01 05:09:67
  TRACK 234 AUDIO
    TITLE "20:cjc171_11117"
    INDEX 01 05:10:30
  TRACK 235 AUDIO
    TITLE "0:"
    INDEX 01 05:12:52
  TRACK 236 AUDIO
    TITLE "21:cjc171_11118"
    INDEX 01 05:13:49
  TRACK 237 AUDIO
    TITLE "0:"
    INDEX 01 05:14:72
  TRACK 238 AUDIO
    TITLE "22:cjc171_11119"
    INDEX 01 05:15:37
  TRACK 239 AUDIO
    TITLE "0:"
    INDEX 01 05:17:41
  TRACK 240 AUDIO
    TITLE "23:cjc171_11120"
    INDEX 01 05:17:73
  TRACK 241 AUDIO
    TITLE "0:"
    INDEX 01 05:20:01
  TRACK 242 AUDIO
    TITLE "19:cjc171_11121"
    INDEX 01 05:21:08
  TRACK 243 AUDIO
    TITLE "0:"
    INDEX 01 05:22:44
  TRACK 244 AUDIO
    TITLE "20:cjc171_11122"
    INDEX 01 05:23:05
  TRACK 245 AUDIO
    TITLE "0:"
    INDEX 01 05:24:45
  TRACK 246 AUDIO
    TITLE "21:cjc171_11123"
    INDEX 01 05:25:43
  TRACK 247 AUDIO
    TITLE "0:"
    INDEX 01 05:27:44
  TRACK 248 AUDIO
    TITLE "22:cjc171_11124"
    INDEX 01 05:28:08
  TRACK 249 AUDIO
    TITLE "0:"
    INDEX 01 05:30:34
  TRACK 250 AUDIO
    TITLE "23:cjc171_11125"
    INDEX 01 05:30:64
  TRACK 251 AUDIO
    TITLE "0:"
    INDEX 01 05:33:15
  TRACK 252 AUDIO
    TITLE "19:cjc171_11126"
    INDEX 01 05:34:18
  TRACK 253 AUDIO
    TITLE "0:"
    INDEX 01 05:35:45
  TRACK 254 AUDIO
    TITLE "20:cjc171_11127"
    INDEX 01 05:36:13
  TRACK 255 AUDIO
    TITLE "0:"
    INDEX 01 05:38:40
  TRACK 256 AUDIO
    TITLE "21:cjc171_11128"
    INDEX 01 05:39:41
  TRACK 257 AUDIO
    TITLE "0:"
    INDEX 01 05:41:09
  TRACK 258 AUDIO
    TITLE "22:cjc171_11129"
    INDEX 01 05:41:50
  TRACK 259 AUDIO
    TITLE "0:"
    INDEX 01 05:43:33
  TRACK 260 AUDIO
    TITLE "23:cjc171_11130"
    INDEX 01 05:43:62
  TRACK 261 AUDIO
    TITLE "0:"
    INDEX 01 05:45:47
  TRACK 262 AUDIO
    TITLE "19:cjc171_11131"
    INDEX 01 05:46:53
  TRACK 263 AUDIO
    TITLE "0:"
    INDEX 01 05:48:03
  TRACK 264 AUDIO
    TITLE "20:cjc171_11132"
    INDEX 01 05:48:42
  TRACK 265 AUDIO
    TITLE "0:"
    INDEX 01 05:50:06
  TRACK 266 AUDIO
    TITLE "21:cjc171_11133"
    INDEX 01 05:51:07
  TRACK 267 AUDIO
    TITLE "0:"
    INDEX 01 05:54:01
  TRACK 268 AUDIO
    TITLE "22:cjc171_11134"
    INDEX 01 05:54:41
  TRACK 269 AUDIO
    TITLE "0:"
    INDEX 01 05:57:51
  TRACK 270 AUDIO
    TITLE "23:cjc171_11135"
    INDEX 01 05:58:05
  TRACK 271 AUDIO
    TITLE "0:"
    INDEX 01 06:01:15
  TRACK 272 AUDIO
    TITLE "19:cjc171_11136"
    INDEX 01 06:02:22
  TRACK 273 AUDIO
    TITLE "0:"
    INDEX 01 06:03:41
  TRACK 274 AUDIO
    TITLE "20:cjc171_11137"
    INDEX 01 06:04:06
  TRACK 275 AUDIO
    TITLE "0:"
    INDEX 01 06:06:10
  TRACK 276 AUDIO
    TITLE "21:cjc171_11138"
    INDEX 01 06:07:08
  TRACK 277 AUDIO
    TITLE "0:"
    INDEX 01 06:08:64
  TRACK 278 AUDIO
    TITLE "22:cjc171_11139"
    INDEX 01 06:09:32
  TRACK 279 AUDIO
    TITLE "0:"
    INDEX 01 06:11:35
  TRACK 280 AUDIO
    TITLE "23:cjc171_11140"
    INDEX 01 06:11:66
  TRACK 281 AUDIO
    TITLE "0:"
    INDEX 01 06:13:71
  TRACK 282 AUDIO
    TITLE "19:cjc171_11141"
    INDEX 01 06:15:04
  TRACK 283 AUDIO
    TITLE "0:"
    INDEX 01 06:16:19
  TRACK 284 AUDIO
    TITLE "20:cjc171_11142"
    INDEX 01 06:16:58
  TRACK 285 AUDIO
    TITLE "0:"
    INDEX 01 06:18:72
  TRACK 286 AUDIO
    TITLE "21:cjc171_11143"
    INDEX 01 06:19:70
  TRACK 287 AUDIO
    TITLE "0:"
    INDEX 01 06:21:49
  TRACK 288 AUDIO
    TITLE "22:cjc171_11144"
    INDEX 01 06:22:11
  TRACK 289 AUDIO
    TITLE "0:"
    INDEX 01 06:24:24
  TRACK 290 AUDIO
    TITLE "23:cjc171_11145"
    INDEX 01 06:24:51
  TRACK 291 AUDIO
    TITLE "0:"
    INDEX 01 06:26:64
  TRACK 292 AUDIO
    TITLE "19:cjc171_11146"
    INDEX 01 06:27:63
  TRACK 293 AUDIO
    TITLE "0:"
    INDEX 01 06:29:08
  TRACK 294 AUDIO
    TITLE "20:cjc171_11147"
    INDEX 01 06:29:45
  TRACK 295 AUDIO
    TITLE "0:"
    INDEX 01 06:32:16
  TRACK 296 AUDIO
    TITLE "21:cjc171_11148"
    INDEX 01 06:33:15
  TRACK 297 AUDIO
    TITLE "0:"
    INDEX 01 06:36:00
  TRACK 298 AUDIO
    TITLE "22:cjc171_11149"
    INDEX 01 06:36:35
  TRACK 299 AUDIO
    TITLE "0:"
    INDEX 01 06:38:55
  TRACK 300 AUDIO
    TITLE "23:cjc171_11150"
    INDEX 01 06:39:08
  TRACK 301 AUDIO
    TITLE "0:"
    INDEX 01 06:41:26
